<?xml version="1.0" standalone="no"?>
<!DOCTYPE svg PUBLIC "-//W3C//DTD SVG 20010904//EN"
 "http://www.w3.org/TR/2001/REC-SVG-20010904/DTD/svg10.dtd">
<svg version="1.0" xmlns="http://www.w3.org/2000/svg"
 width="2048.000000pt" height="1792.000000pt" viewBox="0 0 2048.000000 1792.000000"
 preserveAspectRatio="xMidYMid meet">

<g transform="translate(0.000000,1792.000000) scale(0.100000,-0.100000)"
fill="#000000" stroke="none">
<path d="M9905 17384 c-1024 -45 -2043 -275 -2960 -667 -1181 -505 -2208
-1249 -3058 -2216 -941 -1068 -1598 -2370 -1901 -3761 -277 -1271 -256 -2601
60 -3865 243 -969 671 -1911 1248 -2745 525 -758 1206 -1457 1950 -2002 50
-36 102 -75 116 -86 52 -40 251 -172 405 -269 1030 -648 2220 -1071 3437
-1223 569 -70 1310 -80 1888 -24 806 78 1632 280 2355 577 240 99 634 284 800
375 28 16 86 48 130 72 163 89 488 288 493 301 2 5 7 7 12 4 4 -3 22 8 39 24
17 16 31 27 31 25 0 -7 106 66 305 210 195 141 272 203 267 218 -1 5 2 7 8 3
14 -9 172 124 163 137 -3 6 -1 8 5 4 12 -7 68 41 64 56 -1 5 2 7 8 3 6 -3 40
20 77 52 120 105 123 109 110 122 -9 10 -9 11 4 6 19 -7 63 29 208 171 68 68
110 117 106 124 -4 6 -13 9 -21 6 -8 -3 -14 -1 -14 4 0 14 24 12 38 -2 8 -8
26 4 74 52 35 35 55 58 46 51 -9 -7 -22 -10 -28 -6 -6 4 -9 3 -8 -2 2 -5 -6
-20 -18 -35 l-21 -27 1 34 c1 18 3 33 6 33 20 -1 29 5 35 21 3 10 14 21 24 24
15 4 17 12 13 61 l-5 57 43 -3 c26 -2 45 -9 48 -17 3 -9 0 -11 -8 -6 -9 6 -9
3 -1 -14 13 -24 23 -28 15 -6 -4 10 -1 14 7 12 8 -2 11 -2 7 0 -14 8 -8 25 7
20 8 -4 17 -1 21 5 5 7 -2 9 -20 6 -16 -3 -29 -1 -32 6 -3 10 -12 51 -13 69
-1 4 -17 7 -36 7 -34 0 -35 1 -35 40 l0 40 40 0 40 0 0 40 0 40 -44 0 c-41 0
-44 2 -38 22 5 20 3 21 -11 10 -9 -8 -26 -12 -39 -10 -23 4 -23 4 3 15 28 12
55 58 30 50 -5 -1 -9 3 -9 8 0 6 5 9 10 7 6 -2 8 4 5 12 -4 10 0 14 14 11 11
-2 17 0 14 6 -11 17 -34 9 -54 -20 -11 -15 -18 -31 -14 -34 3 -4 -7 -11 -22
-17 -19 -7 -24 -14 -17 -23 15 -19 11 -46 -6 -39 -11 4 -11 -1 3 -22 10 -15
15 -29 13 -32 -9 -8 -39 46 -32 58 4 6 1 9 -7 6 -8 -3 -13 -15 -12 -27 2 -11
-2 -21 -8 -21 -5 0 -7 5 -3 11 4 7 2 10 -3 8 -14 -5 -213 -215 -213 -224 0 -4
8 -4 17 0 10 3 -7 -18 -37 -48 -30 -30 -57 -53 -59 -51 -2 2 4 11 13 20 9 9
15 18 12 21 -9 9 -45 -37 -40 -50 3 -8 -2 -17 -11 -21 -10 -3 -13 -11 -9 -18
5 -9 2 -8 -9 1 -16 12 -25 7 -85 -50 -37 -35 -93 -88 -125 -118 -32 -29 -56
-56 -53 -59 4 -3 17 5 31 18 14 13 25 19 25 14 0 -5 -9 -15 -20 -22 -12 -7
-19 -16 -16 -20 2 -4 -4 -8 -14 -8 -10 0 -16 4 -14 8 10 16 -12 6 -39 -17 -16
-14 -25 -30 -21 -37 4 -7 3 -8 -5 -4 -14 9 -82 -54 -74 -68 4 -5 1 -6 -6 -2
-13 9 -54 -22 -46 -34 3 -4 -3 -7 -13 -6 -9 0 -16 -5 -15 -11 2 -7 -1 -12 -6
-10 -4 1 -51 -32 -102 -73 -107 -85 -124 -101 -124 -111 0 -4 -4 -11 -9 -16
-5 -5 -6 -3 -2 5 12 20 -3 14 -44 -19 -22 -18 -37 -36 -33 -42 3 -6 1 -7 -6
-3 -14 9 -63 -28 -53 -39 4 -5 2 -5 -4 -2 -6 4 -47 -19 -90 -50 -177 -127
-538 -357 -716 -457 -668 -373 -1380 -653 -2081 -821 -651 -155 -1237 -225
-1892 -225 -962 0 -1860 152 -2744 466 -1061 378 -2037 977 -2851 1752 -829
788 -1439 1662 -1889 2705 -532 1234 -745 2619 -610 3987 153 1566 749 3031
1734 4262 651 814 1423 1473 2345 2000 188 108 602 314 800 398 727 310 1487
510 2280 599 298 34 423 42 780 48 794 13 1554 -81 2285 -284 94 -25 121 -34
345 -104 408 -127 969 -365 1345 -572 44 -24 110 -60 146 -80 197 -108 792
-493 829 -537 3 -3 21 -17 40 -30 45 -31 210 -161 303 -238 21 -17 44 -29 49
-25 6 3 8 1 5 -4 -9 -14 29 -47 44 -37 7 4 10 3 6 -2 -8 -14 60 -77 74 -68 8
4 9 3 5 -5 -8 -12 -8 -12 86 -93 67 -58 97 -76 62 -37 -19 22 -19 22 2 11 12
-6 25 -8 29 -4 4 4 2 -4 -5 -17 -11 -21 -9 -26 22 -51 18 -15 36 -26 41 -23 4
2 6 1 5 -4 -2 -5 25 -38 60 -73 44 -46 65 -61 70 -52 6 9 18 0 42 -30 19 -24
24 -34 12 -24 -12 11 -22 15 -22 9 0 -5 10 -18 21 -29 16 -14 23 -16 26 -6 3
6 9 9 15 6 6 -4 5 -9 -3 -14 -9 -6 17 -40 91 -117 92 -97 135 -136 116 -104
-4 6 -2 11 4 11 7 0 9 -7 6 -16 -4 -10 5 -29 24 -50 16 -19 30 -32 30 -28 0 3
7 1 15 -6 9 -7 13 -15 11 -18 -3 -3 4 -18 15 -33 20 -29 43 -37 54 -20 3 6 -3
8 -14 6 -15 -3 -18 0 -14 12 4 10 2 14 -5 9 -6 -3 -13 -2 -16 3 -8 12 13 8 42
-8 14 -7 21 -18 18 -27 -3 -8 -1 -14 4 -14 6 0 10 -8 10 -17 0 -15 -2 -16 -10
-3 -5 8 -11 12 -14 9 -3 -3 20 -35 51 -72 31 -37 58 -65 61 -63 2 3 -3 13 -12
22 -9 9 -14 19 -10 23 4 3 9 0 11 -6 6 -17 20 -17 26 0 3 9 -4 13 -22 12 -44
-2 -49 9 -44 94 4 52 1 81 -6 85 -6 4 -11 2 -11 -3 0 -6 -13 -11 -30 -11 -34
0 -33 -7 -30 163 1 55 -3 87 -9 87 -6 0 -11 5 -11 10 0 6 21 10 46 10 35 0 45
-3 41 -14 -4 -11 6 -13 46 -12 51 1 52 0 51 -26 -1 -15 2 -25 7 -22 4 2 5 12
2 22 -6 15 -4 15 16 -2 12 -11 20 -24 18 -30 -6 -17 -48 -15 -55 3 -3 9 -12
23 -21 31 -12 13 -13 11 -7 -15 4 -17 7 -35 8 -42 2 -18 26 -24 32 -8 3 8 11
12 19 9 8 -3 20 2 27 11 10 12 7 21 -23 54 -20 22 -37 35 -39 30 -2 -5 -24 12
-50 37 -26 25 -45 51 -42 57 7 19 -59 87 -75 78 -8 -5 -11 -13 -8 -18 4 -6 -7
-10 -23 -11 -17 0 -30 3 -30 8 0 5 7 7 15 4 8 -4 15 -1 15 5 0 6 -5 11 -10 11
-6 0 -4 10 5 23 14 22 13 25 -8 45 l-24 22 -27 -21 c-20 -16 -30 -19 -39 -10
-8 8 -8 14 2 24 10 10 11 9 6 -5 -4 -11 -2 -18 4 -18 6 0 11 3 12 8 5 50 2 65
-17 83 -13 12 -27 19 -32 15 -5 -3 -21 8 -37 24 -16 17 -34 26 -44 23 -13 -4
-13 -2 2 7 14 9 21 6 41 -14 13 -15 27 -26 32 -26 4 0 -7 16 -26 35 -19 20
-40 33 -47 31 -8 -3 -10 1 -6 11 4 11 2 14 -8 11 -8 -3 -14 -15 -14 -28 0 -25
-19 -38 -30 -20 -3 5 3 22 15 37 l21 26 -98 93 c-54 51 -102 93 -107 94 -5 0
-2 -8 7 -18 10 -10 17 -23 17 -28 0 -10 -27 27 -29 41 -4 17 -43 55 -53 49 -5
-3 -7 -1 -6 4 4 13 -90 96 -282 249 -47 37 -87 70 -90 73 -18 18 -100 80 -106
80 -4 0 1 -9 11 -20 17 -18 17 -20 2 -14 -9 3 -18 10 -18 15 -1 5 -2 13 -3 18
-1 12 -21 27 -207 160 -144 104 -179 125 -164 101 3 -6 -1 -7 -10 -3 -11 4
-13 8 -5 13 12 8 -72 66 -300 206 -180 112 -248 150 -495 281 -71 37 -157 81
-190 97 -122 59 -286 136 -290 136 -2 0 -32 13 -67 29 -171 79 -556 224 -794
299 -650 206 -1222 317 -1934 377 -175 15 -821 27 -1005 19z m5800 -1994 c10
-11 16 -20 13 -20 -3 0 -13 9 -23 20 -10 11 -16 20 -13 20 3 0 13 -9 23 -20z
m180 -150 c3 -6 -1 -7 -9 -4 -18 7 -21 14 -7 14 6 0 13 -4 16 -10z m0 -30 c3
-6 -1 -7 -9 -4 -18 7 -21 14 -7 14 6 0 13 -4 16 -10z m119 -78 c2 -4 -5 -9
-17 -9 -17 -2 -19 0 -7 7 18 12 18 12 24 2z m41 -52 c3 -5 1 -10 -4 -10 -6 0
-11 5 -11 10 0 6 2 10 4 10 3 0 8 -4 11 -10z m46 -37 c13 -16 12 -17 -3 -4
-17 13 -22 21 -14 21 2 0 10 -8 17 -17z m-381 -55 c0 -12 -6 -9 -26 13 -19 22
-19 22 4 8 12 -8 22 -17 22 -21z m466 -80 c-8 -6 -7 -11 4 -19 13 -9 13 -10 0
-6 -8 2 -16 16 -17 30 -1 22 1 24 12 14 9 -9 10 -14 1 -19z m75 -16 c14 -16
14 -20 1 -32 -13 -11 -14 -11 -10 1 3 8 1 22 -4 32 -11 22 -7 22 13 -1z m-333
-33 c3 -12 2 -12 -7 1 -8 12 -13 11 -33 -5 l-23 -20 19 23 c21 24 37 25 44 1z
m426 -68 c-3 -3 -9 0 -15 6 -6 6 -19 9 -27 5 -14 -5 -15 -4 -2 10 14 15 16 14
31 -1 9 -9 15 -18 13 -20z m-409 -21 c10 -11 16 -20 13 -20 -3 0 -13 9 -23 20
-10 11 -16 20 -13 20 3 0 13 -9 23 -20z m55 -5 c19 -23 8 -25 -14 -4 -11 11
-15 19 -9 19 6 0 16 -7 23 -15z m446 -97 c-8 -6 -6 -11 4 -18 8 -5 11 -10 6
-10 -4 0 -21 11 -38 25 -16 14 -26 25 -21 25 4 0 1 4 -7 10 -12 8 -12 10 2 15
10 4 14 13 11 23 -3 9 8 -1 24 -23 20 -27 26 -42 19 -47z m-366 17 c19 -23 8
-25 -14 -4 -11 11 -15 19 -9 19 6 0 16 -7 23 -15z m278 -45 c-5 -49 -28 -51
-28 -2 0 21 3 42 7 46 13 12 24 -12 21 -44z m-245 -7 c-20 -8 -15 -26 5 -18
13 5 14 4 5 -6 -10 -10 -16 -9 -28 1 -13 11 -13 15 -3 21 7 5 18 8 23 8 6 0 4
-3 -2 -6z m52 -4 c11 -16 1 -19 -13 -3 -7 8 -8 14 -3 14 5 0 13 -5 16 -11z
m314 -22 c0 -9 -2 -8 -6 1 -2 6 -10 9 -15 6 -7 -4 -8 -2 -4 5 9 13 26 5 25
-12z m51 -33 c0 -3 -6 -1 -14 5 -11 9 -15 9 -19 -1 -2 -7 -4 0 -4 15 0 28 0
28 18 8 11 -11 19 -23 19 -27z m-386 11 c-4 -8 -2 -15 4 -15 6 0 13 6 15 13 4
9 6 9 6 0 1 -17 -19 -27 -31 -15 -6 6 -7 15 -4 21 10 16 16 13 10 -4z m30 -40
c-4 -10 0 -15 12 -16 12 0 14 -3 6 -6 -7 -3 -19 1 -28 8 -12 10 -12 14 -2 20
18 12 18 11 12 -6z m61 -42 c-9 -8 -12 -20 -8 -26 5 -8 8 -8 11 1 3 9 7 8 17
-1 9 -8 10 -16 3 -24 -8 -10 -15 -7 -29 11 -21 27 -25 46 -8 46 6 0 8 7 5 16
-5 14 -4 15 8 4 14 -11 14 -14 1 -27z m70 -39 c-9 -9 -19 -13 -23 -10 -3 4 0
11 8 16 24 15 33 11 15 -6z m10 -40 c-15 -24 -16 -26 -1 -21 9 4 15 2 13 -6
-1 -7 4 -11 11 -9 22 4 50 -17 60 -47 9 -25 8 -29 -6 -27 -10 2 -17 12 -17 27
0 19 -5 24 -25 24 -14 0 -33 10 -43 22 -17 21 -17 24 -1 48 9 14 19 23 22 21
2 -3 -3 -17 -13 -32z m161 -208 c0 -14 -6 -22 -13 -19 -7 3 -13 7 -13 9 0 4
23 33 26 34 1 0 1 -11 0 -24z m-219 -10771 c-6 -7 -18 -10 -25 -8 -8 4 -10 0
-6 -11 3 -9 11 -16 17 -16 6 0 2 -9 -9 -20 -20 -20 -54 -19 -54 1 0 14 18 11
23 -3 3 -10 8 -10 18 1 11 10 11 15 2 18 -18 6 -16 20 5 48 12 16 21 20 29 13
9 -8 9 -13 0 -23z m49 10 c17 -16 14 -18 -10 -9 -9 3 -16 10 -16 15 0 13 9 11
26 -6z m-140 -127 c-1 -41 -3 -43 -31 -44 -44 -1 -60 9 -40 26 13 11 19 10 35
-5 26 -23 39 -11 16 14 -15 16 -15 22 -5 39 18 29 26 20 25 -30z m-81 -87 c-3
-6 -16 -16 -28 -22 -20 -10 -20 -9 3 14 25 24 38 28 25 8z m270 -51 c0 -7 -6
-15 -12 -17 -8 -3 -13 4 -13 17 0 13 5 20 13 18 6 -3 12 -11 12 -18z m-358
-38 c-10 -10 -14 -22 -10 -25 3 -4 2 -7 -4 -7 -22 0 -22 15 -1 36 27 25 39 22
15 -4z m-122 -111 c-6 -5 -25 10 -25 20 0 5 6 4 14 -3 8 -7 12 -15 11 -17z
m365 -5 c0 -3 -4 -8 -10 -11 -5 -3 -10 -1 -10 4 0 6 5 11 10 11 6 0 10 -2 10
-4z m28 -50 c-7 -8 -15 -12 -17 -11 -5 6 10 25 20 25 5 0 4 -6 -3 -14z m-495
-9 c3 -8 -1 -14 -8 -14 -7 0 -11 6 -8 14 3 7 6 13 8 13 2 0 5 -6 8 -13z m417
3 c0 -5 -2 -10 -4 -10 -3 0 -8 5 -11 10 -3 6 -1 10 4 10 6 0 11 -4 11 -10z
m24 -33 c-2 -7 -13 -13 -24 -13 -27 0 -25 14 3 19 12 2 23 5 24 6 1 0 0 -5 -3
-12z m-26 -41 c-7 -8 -15 -12 -17 -11 -5 6 10 25 20 25 5 0 4 -6 -3 -14z m-61
-59 c-18 -18 -34 -31 -36 -30 -6 4 51 63 60 63 4 0 -7 -15 -24 -33z m-17 19
c0 -3 -4 -8 -10 -11 -5 -3 -10 -1 -10 4 0 6 5 11 10 11 6 0 10 -2 10 -4z m-53
-81 c5 -4 3 -5 -4 -2 -6 4 -13 2 -15 -4 -2 -7 -8 -6 -16 3 -9 12 -8 14 8 13
11 -1 23 -5 27 -10z m-97 -93 c-21 -7 -23 -6 -26 10 -2 14 1 15 17 5 11 -7 15
-13 9 -15z m-525 -12 c3 -6 -1 -7 -9 -4 -18 7 -21 14 -7 14 6 0 13 -4 16 -10z
m443 -64 c-7 -8 -15 -12 -17 -11 -5 6 10 25 20 25 5 0 4 -6 -3 -14z m-54 -30
c-10 -8 -21 -12 -24 -10 -5 6 21 24 34 24 6 0 1 -6 -10 -14z m-264 -230 c-7
-7 -13 -7 -20 0 -6 6 -3 10 10 10 13 0 16 -4 10 -10z"/>
<path d="M16400 14702 c0 -5 7 -15 15 -22 8 -7 15 -8 15 -2 0 5 -7 15 -15 22
-8 7 -15 8 -15 2z"/>
<path d="M16130 3340 c0 -5 5 -10 10 -10 6 0 10 5 10 10 0 6 -4 10 -10 10 -5
0 -10 -4 -10 -10z"/>
<path d="M16090 3300 c0 -5 5 -10 10 -10 6 0 10 5 10 10 0 6 -4 10 -10 10 -5
0 -10 -4 -10 -10z"/>
<path d="M16090 14980 c0 -5 5 -10 10 -10 6 0 10 5 10 10 0 6 -4 10 -10 10 -5
0 -10 -4 -10 -10z"/>
<path d="M16280 14850 c0 -5 5 -10 10 -10 6 0 10 5 10 10 0 6 -4 10 -10 10 -5
0 -10 -4 -10 -10z"/>
<path d="M16355 14769 c-4 -6 -5 -13 -2 -16 7 -7 27 6 27 18 0 12 -17 12 -25
-2z"/>
<path d="M15962 14718 c2 -6 10 -14 16 -16 7 -2 10 2 6 12 -7 18 -28 22 -22 4z"/>
<path d="M16500 14635 c19 -19 36 -35 39 -35 3 0 -10 16 -29 35 -19 19 -36 35
-39 35 -3 0 10 -16 29 -35z"/>
<path d="M16625 14490 c-3 -5 -1 -10 4 -10 6 0 11 5 11 10 0 6 -2 10 -4 10 -3
0 -8 -4 -11 -10z"/>
<path d="M16649 14478 c-8 -17 -5 -59 4 -65 16 -10 68 -12 61 -2 -2 4 -12 5
-21 2 -12 -5 -15 -2 -10 10 7 17 -15 41 -28 29 -5 -4 -5 1 -2 11 4 9 4 17 2
17 -3 0 -6 -1 -6 -2z m23 -46 c-7 -2 -9 -9 -6 -15 5 -9 4 -9 -6 0 -15 13 -4
37 13 26 8 -5 8 -8 -1 -11z"/>
<path d="M16733 14374 c3 -4 2 -15 -3 -25 -7 -12 -7 -20 0 -24 6 -4 10 -3 9 2
-4 22 2 34 14 27 8 -5 8 -2 -2 9 -7 9 -16 17 -19 17 -3 0 -2 -3 1 -6z"/>
<path d="M16805 14246 c0 -30 3 -49 7 -43 4 7 8 20 8 30 0 24 17 21 25 -4 4
-11 9 -18 12 -15 5 4 -44 86 -51 86 0 0 -1 -24 -1 -54z"/>
<path d="M16928 14123 c13 -18 27 -35 32 -38 5 -3 7 -13 4 -23 -5 -14 -4 -14
4 -3 11 16 -10 54 -45 82 -12 10 -11 5 5 -18z"/>
<path d="M16551 14114 c0 -11 3 -14 6 -6 3 7 2 16 -1 19 -3 4 -6 -2 -5 -13z"/>
<path d="M16530 14086 c0 -2 6 -9 14 -15 11 -9 16 -9 22 0 4 8 3 9 -4 5 -7 -4
-12 -2 -12 3 0 6 -4 11 -10 11 -5 0 -10 -2 -10 -4z"/>
<path d="M16590 14073 c0 -6 8 -17 18 -24 16 -13 16 -13 2 6 -8 11 -16 22 -17
24 -2 2 -3 0 -3 -6z"/>
<path d="M16620 14071 c0 -5 5 -13 10 -16 6 -3 10 -2 10 4 0 5 -4 13 -10 16
-5 3 -10 2 -10 -4z"/>
<path d="M16570 14053 c0 -6 23 -39 51 -74 28 -35 55 -72 60 -82 11 -20 29
-14 29 10 0 9 -6 13 -14 10 -9 -4 -17 2 -21 14 -4 10 -15 24 -26 30 -12 6 -18
17 -15 25 3 7 1 13 -4 11 -5 -1 -20 13 -34 32 -14 19 -26 30 -26 24z"/>
<path d="M16980 14056 c0 -2 7 -9 15 -16 13 -11 14 -10 9 4 -5 14 -24 23 -24
12z"/>
<path d="M16964 14029 c-3 -6 -2 -15 3 -20 5 -5 9 -1 9 11 0 23 -2 24 -12 9z"/>
<path d="M16680 13975 c0 -14 2 -25 4 -25 2 0 6 11 8 25 3 14 1 25 -3 25 -5 0
-9 -11 -9 -25z"/>
<path d="M16711 13974 c0 -11 3 -14 6 -6 3 7 2 16 -1 19 -3 4 -6 -2 -5 -13z"/>
<path d="M17090 13910 c6 -11 13 -20 16 -20 2 0 0 9 -6 20 -6 11 -13 20 -16
20 -2 0 0 -9 6 -20z"/>
<path d="M17124 13860 c0 -13 4 -16 10 -10 7 7 7 13 0 20 -6 6 -10 3 -10 -10z"/>
<path d="M16750 13811 c5 -11 15 -23 21 -27 6 -3 3 5 -6 20 -20 30 -30 35 -15
7z"/>
<path d="M16780 13766 c0 -2 8 -10 18 -17 15 -13 16 -12 3 4 -13 16 -21 21
-21 13z"/>
<path d="M17226 13727 c3 -10 9 -15 12 -12 3 3 0 11 -7 18 -10 9 -11 8 -5 -6z"/>
<path d="M9865 13724 c-11 -2 -83 -8 -160 -14 -77 -5 -176 -14 -220 -20 -44
-6 -116 -15 -160 -20 -44 -5 -100 -14 -125 -20 -25 -5 -85 -17 -134 -25 -94
-16 -356 -80 -466 -114 -165 -50 -231 -72 -305 -100 -44 -16 -111 -42 -150
-56 -38 -15 -83 -33 -100 -40 -16 -8 -82 -37 -145 -65 -174 -79 -331 -162
-338 -178 -3 -8 1 -24 8 -36 20 -31 179 -304 205 -351 51 -93 97 -165 104
-165 5 0 38 17 73 39 213 130 368 178 823 256 143 25 278 50 300 56 22 5 68
16 102 24 33 7 83 21 110 30 44 15 113 35 303 86 334 90 585 98 880 29 133
-32 243 -62 395 -109 149 -47 277 -74 625 -131 329 -55 556 -130 735 -244 31
-21 63 -35 71 -32 7 3 25 27 39 53 14 26 83 147 154 268 l129 220 -21 19 c-25
22 -420 216 -440 216 -7 0 -17 4 -23 9 -11 10 -278 113 -354 136 -30 9 -86 28
-125 41 -66 22 -157 47 -290 80 -33 8 -82 21 -110 29 -27 8 -93 21 -145 30
-52 9 -115 20 -140 26 -25 5 -80 14 -122 19 -43 6 -115 15 -160 20 -167 21
-309 30 -553 34 -137 3 -259 3 -270 0z"/>
<path d="M16825 13710 c10 -11 20 -20 22 -20 2 0 -2 9 -9 20 -7 11 -17 20 -22
20 -5 0 -1 -9 9 -20z"/>
<path d="M16858 13664 c6 -11 18 -26 26 -34 9 -7 16 -18 16 -24 0 -6 11 -24
23 -40 18 -22 26 -26 32 -16 5 9 4 11 -3 6 -14 -9 -15 -1 -3 23 7 13 6 18 -4
18 -8 0 -11 -7 -7 -16 5 -14 3 -14 -11 -2 -9 7 -17 19 -17 25 -1 6 -15 27 -32
46 -16 19 -25 26 -20 14z"/>
<path d="M16890 13665 c0 -8 2 -15 4 -15 2 0 6 7 10 15 3 8 1 15 -4 15 -6 0
-10 -7 -10 -15z"/>
<path d="M17330 13560 c0 -5 5 -10 11 -10 5 0 7 5 4 10 -3 6 -8 10 -11 10 -2
0 -4 -4 -4 -10z"/>
<path d="M17350 13536 c0 -2 8 -10 18 -17 15 -13 16 -12 3 4 -13 16 -21 21
-21 13z"/>
<path d="M16980 13495 c0 -5 5 -17 10 -25 5 -8 10 -10 10 -5 0 6 -5 17 -10 25
-5 8 -10 11 -10 5z"/>
<path d="M17000 13496 c0 -2 8 -10 18 -17 15 -13 16 -12 3 4 -13 16 -21 21
-21 13z"/>
<path d="M17360 13461 c0 -6 4 -13 10 -16 6 -3 7 1 4 9 -7 18 -14 21 -14 7z"/>
<path d="M17010 13441 c0 -6 4 -13 10 -16 6 -3 7 1 4 9 -7 18 -14 21 -14 7z"/>
<path d="M17055 13378 c4 -13 11 -27 16 -33 5 -5 4 5 -2 23 -12 36 -24 44 -14
10z"/>
<path d="M17105 13349 c-4 -6 -5 -12 -2 -15 2 -3 7 2 10 11 7 17 1 20 -8 4z"/>
<path d="M17126 13267 c3 -10 9 -15 12 -12 3 3 0 11 -7 18 -10 9 -11 8 -5 -6z"/>
<path d="M17176 13175 c24 -39 24 -40 24 -28 0 6 -9 21 -21 34 l-20 24 17 -30z"/>
<path d="M17236 13077 c3 -10 9 -15 12 -12 3 3 0 11 -7 18 -10 9 -11 8 -5 -6z"/>
<path d="M7341 12953 c-41 -16 -399 -266 -511 -357 -455 -369 -829 -778 -1124
-1229 -207 -319 -377 -645 -511 -987 -38 -97 -127 -359 -146 -430 -12 -41 -25
-88 -29 -105 -35 -122 -70 -279 -95 -420 -9 -49 -20 -110 -25 -135 -17 -88
-47 -393 -56 -562 -5 -104 -3 -128 7 -128 230 -2 723 1 727 5 3 3 0 83 -6 178
-15 212 -16 504 -2 600 25 172 73 320 162 505 52 108 167 320 188 347 20 26
190 374 190 389 0 3 8 25 19 49 10 23 39 92 65 154 71 170 157 338 225 439
130 194 279 327 684 608 54 37 135 98 181 134 110 89 426 373 426 383 0 5 -44
84 -98 176 -54 93 -127 219 -163 280 -61 108 -73 120 -108 106z"/>
<path d="M12621 12673 l-165 -286 35 -30 c19 -16 68 -60 109 -97 255 -227 347
-302 525 -427 332 -232 476 -357 592 -513 71 -95 183 -300 236 -430 139 -343
195 -463 337 -720 139 -251 205 -389 250 -519 73 -215 89 -431 63 -861 -6 -96
-7 -179 -3 -183 7 -8 720 -10 728 -2 12 12 -29 514 -53 655 -20 119 -53 297
-64 345 -5 22 -16 72 -24 110 -9 39 -25 97 -35 130 -11 33 -23 76 -26 95 -4
19 -11 44 -15 55 -5 11 -18 52 -31 90 -30 96 -89 263 -105 300 -53 121 -75
174 -75 181 0 13 -162 343 -213 434 -138 246 -260 435 -426 655 -57 77 -107
142 -111 145 -3 3 -60 68 -127 145 -149 172 -397 417 -563 555 -198 166 -618
460 -654 460 -17 -1 -54 -59 -185 -287z"/>
<path d="M17337 12923 c-4 -3 -7 -11 -7 -17 0 -6 5 -5 12 2 6 6 9 14 7 17 -3
3 -9 2 -12 -2z"/>
<path d="M9970 12887 c-3 -3 -36 -10 -75 -16 -123 -18 -309 -63 -460 -111
-167 -53 -413 -109 -587 -135 -240 -36 -508 -98 -608 -142 -138 -60 -250 -130
-250 -155 0 -9 25 -58 55 -109 30 -50 55 -93 55 -94 0 -1 46 -81 101 -176 56
-96 110 -189 120 -207 11 -18 38 -66 61 -105 23 -40 49 -85 57 -102 9 -16 42
-73 72 -125 54 -91 160 -273 239 -410 21 -36 69 -119 108 -185 38 -66 120
-208 182 -315 62 -107 172 -296 243 -420 72 -124 145 -250 162 -280 46 -80
168 -291 275 -475 51 -88 116 -200 145 -250 28 -49 78 -135 110 -190 32 -55
67 -117 79 -137 12 -21 26 -38 33 -38 6 0 32 37 57 83 25 45 57 100 70 122 26
45 67 114 150 257 31 54 81 141 111 193 30 52 79 137 108 187 30 51 80 138
112 193 166 285 375 649 375 652 0 3 14 24 30 48 17 24 30 46 30 48 0 2 30 56
67 118 64 111 149 258 201 348 13 25 38 68 55 95 30 51 118 203 165 286 14 25
44 77 67 115 23 39 53 90 67 115 14 25 42 73 62 107 20 34 36 66 36 71 0 6 3
12 8 14 4 2 41 62 81 133 41 72 101 174 133 228 32 54 58 100 58 102 0 2 13
25 29 51 16 25 27 52 24 59 -12 33 -214 141 -318 171 -27 8 -59 19 -70 24 -43
18 -296 69 -445 90 -143 20 -487 98 -610 139 -30 11 -107 33 -170 49 -107 29
-158 40 -285 64 -58 10 -308 22 -315 15z m-475 -421 c18 -8 38 -23 44 -34 26
-50 3 -156 -41 -186 -38 -27 -95 -21 -130 15 -28 28 -30 34 -25 80 8 69 26
101 67 121 42 22 42 22 85 4z m1804 -62 c42 -35 43 -90 4 -133 -25 -27 -51
-36 -236 -81 -180 -44 -213 -50 -242 -40 -64 21 -87 104 -42 155 22 26 22 26
312 100 124 32 166 31 204 -1z m-2572 -115 c38 -14 150 -125 175 -173 17 -33
18 -42 7 -68 -20 -49 -48 -68 -96 -68 -40 0 -49 5 -107 63 -87 86 -106 114
-106 154 0 46 15 72 53 88 39 17 39 17 74 4z m1726 -119 c31 -35 33 -58 11
-123 -20 -58 -54 -87 -104 -87 -78 0 -113 82 -75 178 31 76 113 92 168 32z
m690 -262 c56 -17 79 -32 126 -78 48 -47 60 -67 80 -129 25 -81 24 -117 -5
-209 -22 -67 -89 -140 -164 -177 -46 -24 -68 -28 -135 -28 -68 0 -89 4 -138
28 -67 33 -130 97 -160 163 -32 69 -30 189 3 257 46 95 115 153 211 179 75 20
103 19 182 -6z m-1757 -110 c48 -15 79 -34 114 -67 69 -66 93 -119 98 -217 4
-73 1 -88 -23 -143 -35 -78 -113 -152 -185 -176 -58 -19 -156 -21 -208 -4 -75
24 -151 90 -190 164 -23 43 -27 62 -27 140 0 104 22 162 87 227 90 90 209 117
334 76z m871 -310 c48 -45 38 -115 -24 -167 -15 -13 -84 -75 -153 -136 -136
-122 -155 -135 -195 -135 -40 0 -95 59 -95 101 0 27 12 43 68 98 110 109 258
240 289 256 35 19 79 12 110 -17z m-616 -609 c35 -45 18 -150 -31 -194 -14
-13 -36 -20 -62 -20 -51 0 -98 47 -97 98 1 55 36 126 69 140 33 14 103 0 121
-24z m1161 -196 c73 -71 98 -108 98 -143 0 -35 -27 -76 -59 -90 -52 -21 -87
-5 -169 79 -82 84 -96 109 -86 155 12 57 44 78 108 72 32 -4 51 -16 108 -73z
m-642 -194 c88 -40 152 -108 180 -193 21 -64 15 -169 -14 -231 -28 -63 -94
-132 -151 -160 -56 -28 -223 -29 -277 -1 -61 30 -125 93 -154 152 -23 47 -27
68 -27 139 0 71 4 92 27 139 32 65 109 138 169 159 64 23 192 21 247 -4z m141
-678 c69 -69 12 -221 -82 -221 -47 0 -98 47 -99 90 -1 127 106 205 181 131z"/>
<path d="M10990 11712 c-34 -18 -69 -70 -70 -103 -1 -40 31 -89 72 -110 37
-19 46 -20 82 -9 75 22 113 98 81 163 -32 66 -104 92 -165 59z"/>
<path d="M9243 11613 c-37 -7 -83 -69 -83 -109 0 -80 57 -130 139 -121 137 15
135 217 -2 232 -17 2 -42 1 -54 -2z"/>
<path d="M10003 10313 c-32 -6 -79 -56 -86 -90 -13 -67 32 -136 97 -148 65
-13 146 54 146 120 0 28 -30 83 -54 98 -26 17 -72 26 -103 20z"/>
<path d="M17486 12617 c3 -10 9 -15 12 -12 3 3 0 11 -7 18 -10 9 -11 8 -5 -6z"/>
<path d="M17645 12309 c-4 -6 -5 -12 -2 -15 2 -3 7 2 10 11 7 17 1 20 -8 4z"/>
<path d="M7639 12052 c-225 -201 -235 -208 -479 -382 -510 -364 -589 -458
-799 -965 -43 -102 -78 -184 -113 -265 -37 -83 -115 -234 -197 -380 -143 -254
-218 -418 -257 -566 -36 -138 -43 -354 -22 -696 l12 -198 2035 -1 c1970 -1
2072 -1 2079 6 4 4 -30 65 -198 355 -118 203 -150 258 -495 855 -114 198 -239
414 -278 480 -38 66 -79 136 -89 155 -11 19 -44 76 -73 125 -45 77 -110 189
-310 535 -194 334 -267 460 -315 545 -31 55 -73 127 -92 160 -20 33 -46 79
-59 101 -121 211 -165 284 -174 284 -5 0 -85 -67 -176 -148z m80 -433 c36 -35
40 -72 16 -147 -8 -26 -19 -66 -25 -88 -5 -23 -22 -53 -36 -68 -60 -60 -164
-17 -164 68 0 67 48 208 81 239 41 38 88 37 128 -4z m543 -567 c29 -28 32 -81
9 -119 -28 -44 -117 -71 -170 -51 -40 15 -61 47 -61 95 0 88 156 141 222 75z
m-866 -43 c250 -45 349 -346 175 -532 -55 -59 -100 -83 -177 -96 -114 -18
-205 11 -284 90 -113 113 -123 297 -24 423 51 65 139 109 245 125 3 1 32 -4
65 -10z m-433 -839 c37 -42 36 -81 -6 -126 -30 -33 -39 -36 -98 -41 -60 -5
-68 -3 -88 18 -64 68 -41 139 56 175 54 20 102 11 136 -26z m1506 -35 c53 -27
62 -112 17 -153 -23 -22 -85 -42 -129 -42 -44 0 -87 49 -87 98 0 49 22 78 75
97 52 18 89 18 124 0z m-1030 -66 c36 -12 89 -30 116 -40 28 -9 81 -27 120
-39 124 -38 145 -57 145 -125 0 -46 -45 -95 -87 -95 -15 0 -122 31 -238 68
-196 64 -212 71 -233 103 -30 43 -24 84 18 122 37 33 69 34 159 6z m1532 -424
c79 -80 149 -155 156 -167 19 -36 15 -80 -11 -113 -21 -26 -30 -30 -75 -30
l-51 0 -145 150 c-80 83 -152 163 -161 179 -41 74 36 162 117 134 15 -5 91
-74 170 -153z m-2262 43 c102 -43 167 -127 191 -241 19 -96 -10 -195 -81 -272
-64 -69 -135 -99 -234 -99 -65 0 -90 5 -135 25 -56 26 -126 93 -153 145 -66
129 -32 300 77 389 101 83 222 102 335 53z m1711 -160 c89 -31 168 -109 195
-194 63 -194 -42 -377 -243 -424 -66 -15 -122 -7 -198 29 -56 26 -118 83 -144
131 -70 131 -42 293 69 393 92 83 203 106 321 65z m-1061 -372 c29 -16 51 -53
51 -89 0 -12 -11 -65 -25 -117 -30 -112 -53 -140 -116 -140 -53 0 -99 43 -99
91 0 38 33 158 58 209 27 55 78 73 131 46z m-1020 -80 c30 -16 51 -53 51 -91
0 -34 -43 -80 -88 -93 -65 -20 -97 -15 -132 18 -30 28 -32 34 -27 76 6 53 19
70 73 89 51 18 88 18 123 1z"/>
<path d="M7251 10775 c-44 -51 -44 -111 2 -161 64 -70 165 -48 195 41 29 86
-23 155 -116 155 -45 0 -53 -4 -81 -35z"/>
<path d="M6520 9495 c-64 -34 -72 -141 -16 -194 51 -48 147 -32 186 31 24 39
25 69 5 108 -33 65 -112 90 -175 55z"/>
<path d="M8270 9337 c-41 -14 -80 -68 -80 -111 0 -39 43 -104 73 -111 67 -14
93 -8 135 29 32 30 37 41 37 78 0 88 -80 144 -165 115z"/>
<path d="M12343 12188 c-10 -12 -60 -98 -108 -183 -13 -22 -62 -107 -110 -190
-48 -82 -129 -222 -180 -310 -51 -88 -113 -195 -139 -238 -25 -43 -46 -80 -46
-83 0 -2 -26 -48 -58 -101 -32 -54 -70 -118 -84 -143 -46 -80 -188 -326 -228
-395 -10 -16 -42 -73 -72 -125 -210 -365 -323 -559 -339 -582 -10 -15 -19 -29
-19 -31 0 -2 -47 -84 -103 -183 -57 -98 -139 -240 -182 -314 -42 -74 -101
-175 -130 -225 -29 -49 -85 -146 -125 -215 -40 -69 -91 -156 -113 -193 -22
-37 -38 -70 -35 -72 5 -5 4109 -7 4114 -3 11 12 25 414 21 588 -5 235 -12 273
-73 438 -51 137 -107 248 -279 552 -55 97 -142 278 -186 389 -17 42 -37 90
-44 106 -7 17 -20 48 -30 70 -40 98 -53 127 -112 243 -99 196 -184 304 -349
441 -89 74 -140 112 -334 249 -188 132 -309 230 -500 403 -142 129 -141 128
-157 107z m-70 -788 c34 -38 34 -69 1 -180 -14 -47 -32 -110 -40 -140 -47
-179 -68 -210 -141 -210 -50 0 -93 40 -93 87 0 33 76 318 107 402 31 83 110
102 166 41z m555 -282 c97 -23 188 -110 221 -210 7 -20 12 -68 12 -106 0 -89
-33 -162 -103 -228 -69 -64 -106 -78 -213 -78 -80 -1 -96 2 -148 28 -114 58
-170 149 -171 281 -1 91 11 128 63 198 78 105 206 148 339 115z m-809 -549
c50 -28 91 -85 91 -125 0 -48 -49 -94 -101 -94 -32 0 -46 7 -83 43 -51 49 -64
84 -45 128 12 31 61 69 88 69 7 0 30 -9 50 -21z m1582 -422 c56 -43 49 -135
-12 -168 -11 -6 -63 -21 -115 -35 -85 -21 -99 -22 -128 -10 -42 18 -66 51 -66
93 0 51 34 81 119 103 41 11 76 22 79 25 10 10 107 4 123 -8z m-1064 -87 c1 0
10 -11 19 -24 16 -26 31 -82 66 -251 11 -55 24 -120 29 -145 20 -92 -16 -150
-91 -150 -47 0 -85 34 -98 86 -18 73 -72 329 -78 371 -13 87 43 143 121 121
16 -4 31 -8 32 -8z m-1202 -162 c74 -50 98 -136 51 -183 -51 -51 -112 -41
-171 28 -47 55 -49 106 -4 148 38 35 80 38 124 7z m753 -375 c105 -52 177
-153 189 -267 12 -119 -69 -256 -185 -313 -48 -23 -69 -28 -137 -27 -96 0
-151 22 -221 86 -67 61 -98 133 -99 228 0 66 4 84 33 143 57 115 154 175 285
176 66 1 87 -3 135 -26z m1506 1 c68 -34 122 -87 157 -156 39 -77 41 -186 5
-264 -33 -72 -88 -128 -154 -161 -49 -24 -69 -28 -142 -28 -102 1 -156 23
-227 93 -66 66 -86 118 -87 222 -1 74 3 93 27 142 55 113 159 176 291 177 65
1 87 -3 130 -25z m454 -299 c35 -37 42 -50 42 -84 0 -61 -35 -96 -95 -96 -42
0 -50 4 -91 47 -36 39 -44 53 -44 85 0 43 23 77 60 92 42 17 82 3 128 -44z
m-1272 -38 c52 -52 61 -83 39 -130 -18 -38 -50 -57 -97 -57 -24 0 -42 11 -79
49 -59 58 -65 100 -23 150 22 26 33 31 71 31 40 0 51 -5 89 -43z m-1483 -7
c32 -36 34 -71 7 -115 -20 -33 -39 -41 -156 -70 -74 -18 -108 -19 -137 -3 -34
18 -46 40 -46 83 -1 64 22 83 135 116 119 34 158 32 197 -11z"/>
<path d="M12695 10921 c-97 -43 -96 -175 2 -221 39 -18 49 -19 79 -8 49 18 76
50 81 100 6 53 -8 92 -41 113 -30 20 -93 28 -121 16z"/>
<path d="M11882 9325 c-43 -36 -58 -77 -44 -124 19 -60 54 -86 119 -86 49 0
58 3 84 33 24 27 29 41 29 83 0 45 -4 55 -34 85 -29 29 -41 34 -79 34 -34 0
-53 -6 -75 -25z"/>
<path d="M13394 9332 c-118 -74 -24 -256 110 -212 75 24 101 131 48 191 -37
41 -110 51 -158 21z"/>
<path d="M6048 8435 c-273 -52 -501 -225 -621 -472 l-22 -45 -70 6 c-38 4
-124 11 -190 17 -132 11 -281 25 -420 39 -49 6 -198 19 -330 31 -566 48 -686
59 -785 69 -58 6 -153 14 -211 17 -104 5 -108 5 -172 -26 -168 -80 -266 -294
-267 -583 0 -324 142 -574 343 -602 37 -5 196 4 407 24 58 5 166 14 240 20 74
5 187 14 250 19 136 11 564 46 770 61 80 7 178 16 218 21 40 5 106 9 145 9
l72 -1 30 -62 c99 -206 285 -361 515 -431 140 -42 262 -46 1429 -46 597 0
1833 -4 2746 -9 3069 -18 3952 -18 4025 -2 73 16 182 59 250 98 43 25 183 138
205 165 58 73 80 105 115 171 27 49 48 77 58 77 10 0 112 -9 227 -20 231 -22
380 -36 555 -50 63 -5 158 -14 210 -20 52 -6 149 -15 215 -20 66 -5 192 -16
280 -24 569 -54 608 -55 684 -16 126 64 224 237 252 446 12 92 7 286 -10 340
-5 16 -15 49 -22 74 -37 127 -123 246 -208 289 -76 39 -127 44 -293 27 -84 -8
-227 -20 -318 -26 -91 -5 -210 -15 -265 -20 -156 -15 -316 -28 -480 -40 -82
-6 -197 -15 -255 -21 -202 -19 -472 -39 -530 -39 l-59 0 -25 55 c-94 206 -311
384 -544 447 -73 19 -116 21 -802 28 -399 5 -1843 13 -3210 19 -1367 6 -2838
13 -3270 16 -660 4 -797 2 -862 -10z m1180 -244 c81 -42 113 -94 120 -197 10
-151 -76 -435 -205 -674 l-45 -84 63 -61 c91 -86 178 -119 309 -119 110 0 163
20 217 82 17 20 35 33 40 28 4 -4 8 -45 7 -89 -1 -108 -32 -169 -112 -226 -89
-63 -276 -68 -384 -10 -38 21 -138 120 -181 182 -22 31 -45 57 -51 57 -6 0
-38 -27 -70 -60 -70 -70 -119 -101 -196 -119 -48 -11 -63 -11 -107 2 -69 21
-91 33 -136 76 -62 58 -83 128 -67 223 12 79 36 125 91 179 59 57 108 72 221
68 67 -3 94 -9 137 -31 29 -16 57 -28 61 -28 10 0 77 137 122 250 94 234 137
410 108 445 -17 21 -53 19 -101 -5 -105 -54 -174 -162 -186 -290 -7 -85 -13
-92 -89 -110 -142 -34 -227 90 -160 236 80 174 269 292 469 293 68 1 96 -3
125 -18z m2269 -15 c72 -33 102 -62 138 -135 65 -128 -5 -304 -133 -332 -45
-11 -61 -10 -96 2 -57 20 -60 48 -8 97 21 20 45 52 52 71 19 48 17 123 -3 155
-15 22 -25 26 -68 26 -27 0 -63 -7 -78 -15 -46 -23 -112 -105 -169 -207 -79
-143 -107 -230 -106 -332 1 -119 39 -166 134 -166 47 0 61 5 93 31 32 26 37
36 37 71 0 43 -21 78 -47 78 -23 0 -11 31 20 54 61 46 199 8 240 -65 15 -28
17 -47 13 -103 -12 -161 -120 -274 -296 -311 -220 -46 -386 20 -453 180 -37
89 -49 213 -28 281 5 16 19 63 31 104 46 153 149 330 246 421 62 57 89 75 161
105 51 21 71 24 158 22 85 -3 109 -7 162 -32z m1394 -36 c22 -12 43 -28 46
-36 3 -8 -6 -40 -20 -72 -13 -31 -30 -75 -37 -97 -7 -22 -16 -44 -20 -50 -9
-13 -22 -65 -16 -65 3 0 27 14 55 31 46 29 56 31 118 27 56 -3 75 -9 105 -31
112 -86 110 -326 -4 -504 -68 -106 -152 -153 -271 -153 -40 1 -83 7 -96 14
-16 9 -46 12 -91 8 -83 -6 -106 6 -132 66 l-20 45 -60 -67 c-78 -87 -122 -109
-213 -109 -45 0 -81 6 -101 16 -36 19 -74 87 -74 133 0 17 -3 34 -6 37 -4 4
-32 -17 -63 -45 -70 -64 -109 -80 -192 -81 -81 -1 -108 14 -138 79 -17 36 -22
65 -22 128 0 263 210 494 413 456 54 -11 98 -31 118 -55 12 -14 16 -12 42 20
25 30 35 35 71 35 49 0 124 -32 133 -55 4 -9 2 -26 -4 -38 -56 -113 -104 -271
-100 -332 3 -47 5 -50 32 -53 15 -2 41 2 57 9 58 23 128 140 159 261 41 162
165 480 192 491 31 13 101 6 139 -13z m1632 -50 c44 -38 85 -39 156 -3 70 34
182 44 230 19 71 -37 92 -90 49 -120 -20 -14 -25 -14 -57 5 -62 37 -90 41
-127 19 -17 -11 -34 -27 -37 -34 -3 -8 -27 -27 -54 -43 -58 -34 -147 -38 -201
-10 -66 36 -94 130 -52 175 28 30 53 28 93 -8z m955 -243 c23 -11 42 -24 42
-29 0 -17 23 -7 50 22 33 35 76 39 140 14 65 -26 66 -37 15 -167 -50 -127 -74
-229 -65 -267 4 -18 14 -26 34 -28 60 -7 107 31 170 141 31 52 40 57 56 26 9
-16 7 -35 -10 -86 -50 -156 -129 -266 -220 -306 -59 -26 -164 -27 -208 -2 -40
24 -72 83 -72 134 0 22 -3 41 -6 41 -3 0 -32 -23 -63 -52 -69 -63 -108 -80
-187 -82 -78 -1 -108 15 -137 75 -12 27 -25 48 -29 49 -4 0 -18 -17 -31 -38
-31 -48 -100 -110 -143 -128 -18 -8 -66 -14 -106 -14 -81 0 -123 18 -155 67
-28 42 -23 182 10 307 34 125 35 154 3 166 -59 22 -135 -31 -181 -125 -39 -79
-57 -168 -60 -287 -2 -58 -6 -111 -9 -117 -11 -18 -123 -13 -152 5 -26 17 -54
72 -54 105 0 28 -8 24 -62 -31 -68 -69 -116 -92 -197 -93 -109 -1 -164 43
-177 141 -3 29 -9 52 -13 52 -4 0 -25 -20 -49 -45 -59 -63 -112 -87 -192 -89
-79 -1 -110 15 -141 76 -65 127 -2 377 124 495 66 62 120 86 208 91 80 5 129
-9 174 -49 20 -18 21 -18 38 11 10 16 29 33 43 36 40 10 107 -5 139 -30 l30
-24 -24 -64 c-60 -162 -82 -232 -88 -278 -7 -60 6 -80 52 -80 66 0 151 108
199 251 32 94 85 198 111 215 50 33 169 -5 180 -57 l6 -27 58 30 c105 54 235
34 273 -43 23 -46 22 -130 -2 -207 -23 -72 -26 -132 -8 -150 19 -19 69 -14
105 11 39 25 92 101 117 167 91 234 292 350 464 267z m-5632 4 c23 -10 45 -24
48 -30 10 -16 36 -13 36 4 0 8 11 22 25 31 55 36 185 -7 185 -61 0 -13 -4 -26
-9 -29 -5 -3 -12 -18 -16 -33 -3 -15 -15 -46 -25 -69 -11 -22 -28 -75 -40
-117 -33 -126 -26 -157 38 -157 28 0 43 9 81 48 25 26 58 69 73 95 15 26 32
47 37 47 20 0 23 -49 6 -107 -40 -139 -123 -256 -215 -303 -58 -29 -164 -31
-212 -4 -39 23 -78 93 -78 141 0 18 -3 33 -7 33 -5 0 -30 -22 -56 -49 -64 -65
-103 -83 -188 -84 -54 -1 -75 3 -96 19 -66 48 -89 167 -58 296 39 162 140 290
262 334 56 20 160 17 209 -5z"/>
<path d="M6676 7348 c-22 -31 -20 -70 5 -102 28 -36 89 -36 142 -1 43 30 46
44 15 72 -60 55 -136 69 -162 31z"/>
<path d="M10015 7752 c-100 -61 -189 -251 -155 -332 14 -34 38 -44 85 -36 67
13 156 155 178 283 10 56 9 64 -8 83 -23 25 -61 26 -100 2z"/>
<path d="M10883 7743 c-32 -34 -85 -147 -108 -230 -15 -52 -15 -68 -5 -93 45
-109 204 22 241 198 12 60 6 114 -17 137 -26 25 -81 19 -111 -12z"/>
<path d="M11643 7760 c-63 -25 -146 -148 -173 -255 -11 -44 -11 -55 4 -83 30
-57 97 -55 154 5 56 60 112 196 112 274 0 38 -4 51 -19 59 -23 12 -48 12 -78
0z"/>
<path d="M13375 7756 c-44 -19 -103 -89 -137 -163 -104 -222 63 -303 178 -87
98 182 78 302 -41 250z"/>
<path d="M7753 7760 c-75 -30 -164 -179 -171 -286 -4 -55 -2 -63 19 -78 51
-35 110 -11 161 66 49 75 55 86 77 167 32 115 -1 165 -86 131z"/>
<path d="M6407 6276 c-54 -20 -74 -41 -93 -98 -45 -138 84 -249 224 -193 101
41 114 209 22 276 -35 25 -107 32 -153 15z"/>
<path d="M13771 6280 c-93 -22 -135 -143 -84 -243 32 -63 168 -87 231 -40 84
61 81 216 -4 265 -37 21 -99 29 -143 18z"/>
<path d="M4557 6123 c-9 -8 -9 -1036 -1 -1057 5 -14 29 -16 160 -16 140 0 154
2 155 18 0 9 0 70 0 135 1 99 3 119 17 126 10 4 80 11 157 14 154 6 208 21
289 76 58 40 89 82 123 162 22 54 27 80 27 159 1 200 -91 322 -281 370 -67 18
-111 20 -358 20 -155 0 -285 -3 -288 -7z m552 -256 c60 -31 88 -127 58 -200
-27 -63 -64 -78 -187 -75 l-105 3 -3 120 c-4 176 -12 165 111 165 61 0 112 -5
126 -13z"/>
<path d="M10925 5890 c-133 -21 -261 -121 -311 -244 -29 -72 -40 -190 -25
-270 25 -137 107 -243 229 -298 57 -26 82 -31 172 -35 58 -3 132 0 164 6 75
14 175 63 218 108 l32 33 -77 78 c-73 72 -78 76 -99 63 -101 -63 -171 -77
-242 -47 -37 15 -91 79 -81 96 4 6 101 10 281 10 l274 0 0 63 c0 114 -42 241
-104 315 -35 41 -112 89 -172 107 -64 19 -184 26 -259 15z m150 -214 c37 -16
75 -68 75 -103 0 -13 -6 -23 -12 -23 -90 -4 -233 1 -239 7 -16 16 32 93 70
113 44 23 62 24 106 6z"/>
<path d="M12768 5886 c-43 -12 -109 -52 -134 -82 -15 -19 -38 -21 -40 -4 0 8
-2 32 -2 53 l-2 37 -144 0 c-109 0 -146 -3 -155 -14 -8 -9 -10 -127 -9 -417
l3 -404 153 -3 c140 -2 152 -1 153 15 1 10 0 95 -1 188 -3 292 26 346 193 363
l72 7 0 135 c0 154 2 151 -87 126z"/>
<path d="M15165 5894 c-124 -17 -266 -56 -292 -78 -9 -9 -5 -31 21 -99 18 -48
38 -93 43 -98 6 -6 25 -3 54 9 72 31 191 46 250 32 54 -13 92 -50 87 -84 -3
-20 -11 -21 -168 -27 -107 -4 -176 -11 -195 -20 -66 -30 -103 -62 -131 -112
-24 -43 -29 -64 -29 -122 0 -91 37 -162 109 -214 44 -32 56 -35 132 -39 116
-6 165 3 225 44 28 19 55 34 60 34 5 0 9 -16 9 -35 l0 -36 148 3 147 3 0 315
0 315 -31 55 c-35 63 -112 122 -184 140 -48 13 -205 21 -255 14z m170 -515
c29 -92 -129 -181 -209 -118 -46 36 -32 111 24 132 8 3 52 6 97 6 74 1 82 -1
88 -20z"/>
<path d="M6316 5868 c-8 -30 -8 -782 0 -802 5 -14 28 -16 155 -16 l149 0 -2
418 -3 417 -146 3 c-145 2 -147 2 -153 -20z"/>
<path d="M7484 5877 c-2 -7 -3 -60 -2 -118 l3 -104 168 -3 c92 -1 167 -6 167
-10 -1 -8 -62 -79 -238 -276 l-123 -138 3 -86 3 -87 390 0 390 0 0 110 0 110
-193 3 c-223 3 -213 -11 -91 123 42 46 119 133 173 193 l97 110 -3 90 -3 91
-368 3 c-298 2 -368 0 -373 -11z"/>
<path d="M9052 5773 l3 -118 168 -3 c93 -1 167 -6 165 -11 -3 -8 -222 -258
-320 -365 l-37 -41 -1 -92 0 -93 390 0 390 0 0 115 0 115 -190 0 c-161 0 -190
2 -183 14 6 11 235 270 308 350 49 52 55 69 55 142 0 40 -3 79 -6 88 -5 14
-48 16 -375 16 l-370 0 3 -117z"/>
<path d="M13677 5884 c-4 -4 -7 -193 -7 -421 l0 -413 155 0 155 0 -2 418 -3
417 -146 3 c-80 1 -148 -1 -152 -4z"/>
<path d="M17656 5637 c3 -10 9 -15 12 -12 3 3 0 11 -7 18 -10 9 -11 8 -5 -6z"/>
<path d="M17236 4843 c-6 -14 -5 -15 5 -6 7 7 10 15 7 18 -3 3 -9 -2 -12 -12z"/>
<path d="M17177 4747 l-17 -32 20 24 c17 20 26 41 18 41 -2 0 -11 -15 -21 -33z"/>
<path d="M17126 4653 c-6 -14 -5 -15 5 -6 7 7 10 15 7 18 -3 3 -9 -2 -12 -12z"/>
<path d="M17089 4603 c-13 -16 -12 -17 4 -4 16 13 21 21 13 21 -2 0 -10 -8
-17 -17z"/>
<path d="M17100 4581 c0 -6 4 -13 10 -16 6 -3 7 1 4 9 -7 18 -14 21 -14 7z"/>
<path d="M17056 4545 c-9 -26 -7 -32 5 -12 6 10 9 21 6 23 -2 3 -7 -2 -11 -11z"/>
<path d="M17015 4489 c-4 -6 -5 -12 -2 -15 2 -3 7 2 10 11 7 17 1 20 -8 4z"/>
<path d="M16986 4445 c-9 -26 -7 -32 5 -12 6 10 9 21 6 23 -2 3 -7 -2 -11 -11z"/>
<path d="M17009 4433 c-13 -16 -12 -17 4 -4 16 13 21 21 13 21 -2 0 -10 -8
-17 -17z"/>
<path d="M17385 4389 c-4 -6 -5 -12 -2 -15 2 -3 7 2 10 11 7 17 1 20 -8 4z"/>
<path d="M16933 4368 c-15 -20 -25 -38 -20 -38 3 0 12 11 21 25 17 26 16 35
-1 13z"/>
<path d="M16936 4335 c-9 -26 -7 -32 5 -12 6 10 9 21 6 23 -2 3 -7 -2 -11 -11z"/>
<path d="M17330 4300 c-6 -11 -8 -20 -6 -20 3 0 10 9 16 20 6 11 8 20 6 20 -3
0 -10 -9 -16 -20z"/>
<path d="M16951 4294 c0 -11 3 -14 6 -6 3 7 2 16 -1 19 -3 4 -6 -2 -5 -13z"/>
<path d="M16867 4271 c-13 -23 -14 -28 -2 -28 8 0 12 4 9 9 -3 5 0 16 7 24 6
8 10 16 7 19 -2 2 -12 -8 -21 -24z"/>
<path d="M16890 4260 c0 -5 5 -10 11 -10 5 0 7 5 4 10 -3 6 -8 10 -11 10 -2 0
-4 -4 -4 -10z"/>
<path d="M16815 4196 c-30 -34 -35 -48 -10 -24 16 15 27 29 24 32 -2 2 -8 -1
-14 -8z"/>
<path d="M17246 4184 c-5 -14 -4 -15 9 -4 17 14 19 20 6 20 -5 0 -12 -7 -15
-16z"/>
<path d="M16760 4125 c-11 -13 -10 -14 5 -8 15 5 17 3 11 -13 -5 -14 -4 -16 4
-7 8 7 9 17 3 28 -9 15 -11 15 -23 0z"/>
<path d="M17143 4048 c1 -15 6 -23 11 -18 4 4 4 16 -2 26 -9 16 -10 14 -9 -8z"/>
<path d="M16681 4023 c-5 -10 -32 -47 -60 -82 -28 -35 -51 -69 -51 -75 0 -6
16 11 35 39 20 27 40 52 46 55 11 7 52 80 44 80 -2 0 -9 -8 -14 -17z"/>
<path d="M17119 3993 c-13 -16 -12 -17 4 -4 16 13 21 21 13 21 -2 0 -10 -8
-17 -17z"/>
<path d="M16705 3980 c3 -5 8 -10 11 -10 2 0 4 5 4 10 0 6 -5 10 -11 10 -5 0
-7 -4 -4 -10z"/>
<path d="M16680 3945 c0 -14 3 -25 8 -25 4 0 7 11 7 25 0 14 -3 25 -7 25 -5 0
-8 -11 -8 -25z"/>
<path d="M17046 3955 c-9 -26 -7 -32 5 -12 6 10 9 21 6 23 -2 3 -7 -2 -11 -11z"/>
<path d="M17081 3953 c-7 -8 -11 -16 -8 -19 2 -2 10 2 17 11 17 20 9 27 -9 8z"/>
<path d="M16711 3944 c0 -11 3 -14 6 -6 3 7 2 16 -1 19 -3 4 -6 -2 -5 -13z"/>
<path d="M17042 3895 c-12 -14 -18 -25 -13 -25 5 0 16 11 25 25 9 14 15 25 13
25 -2 0 -13 -11 -25 -25z"/>
<path d="M16991 3894 c0 -11 3 -14 6 -6 3 7 2 16 -1 19 -3 4 -6 -2 -5 -13z"/>
<path d="M16602 3873 c-15 -27 -16 -44 -1 -23 8 11 12 12 16 2 5 -13 23 -7 23
9 0 6 -4 8 -9 4 -5 -3 -11 3 -13 12 -3 16 -5 15 -16 -4z"/>
<path d="M16540 3845 c-9 -10 -9 -15 -1 -15 6 0 11 5 11 11 0 5 5 7 12 3 7 -4
8 -3 4 4 -9 15 -11 15 -26 -3z"/>
<path d="M16989 3823 c-13 -16 -12 -17 4 -4 9 7 17 15 17 17 0 8 -8 3 -21 -13z"/>
<path d="M16508 3803 c-29 -34 -28 -39 6 -39 32 1 33 2 24 28 -12 33 -11 33
-30 11z m16 -18 c-4 -8 -10 -15 -15 -15 -4 0 -6 7 -3 15 4 8 10 15 15 15 4 0
6 -7 3 -15z"/>
<path d="M16924 3738 l-19 -23 23 19 c21 18 27 26 19 26 -2 0 -12 -10 -23 -22z"/>
<path d="M16436 3715 c-15 -19 -24 -35 -20 -35 3 0 15 11 26 25 11 14 24 23
29 20 5 -4 6 1 3 9 -8 21 -8 21 -38 -19z"/>
<path d="M16443 3687 c-10 -13 -18 -28 -16 -34 3 -7 -5 -17 -17 -23 -27 -14
-17 -30 21 -30 16 0 29 -5 29 -11 0 -5 5 -7 10 -4 12 8 13 112 2 119 -5 3 -18
-5 -29 -17z"/>
<path d="M16803 3664 c-3 -8 -2 -19 3 -24 5 -5 9 1 9 16 0 28 -3 30 -12 8z"/>
<path d="M16849 3643 l-24 -28 28 24 c15 14 27 26 27 28 0 8 -8 1 -31 -24z"/>
<path d="M16796 3601 c-4 -5 -2 -12 3 -15 5 -4 12 -2 15 3 4 5 2 12 -3 15 -5
4 -12 2 -15 -3z"/>
<path d="M16725 3589 c-4 -6 -5 -12 -2 -15 2 -3 7 2 10 11 7 17 1 20 -8 4z"/>
<path d="M16756 3584 c-4 -9 -4 -19 -1 -22 2 -3 7 3 11 12 4 9 4 19 1 22 -2 3
-7 -3 -11 -12z"/>
<path d="M16770 3555 c-7 -9 -8 -15 -2 -15 5 0 12 7 16 15 3 8 4 15 2 15 -2 0
-9 -7 -16 -15z"/>
<path d="M16290 3540 c0 -5 5 -10 10 -10 6 0 10 5 10 10 0 6 -4 10 -10 10 -5
0 -10 -4 -10 -10z"/>
<path d="M16727 3500 c-19 -22 -22 -35 -7 -25 10 6 34 45 28 45 -2 0 -11 -9
-21 -20z"/>
<path d="M16640 3490 c0 -3 4 -20 10 -39 9 -31 7 -36 -17 -57 -15 -13 -25 -26
-22 -28 3 -3 21 10 39 29 19 19 29 35 22 35 -7 0 -12 8 -12 18 0 15 -19 56
-20 42z"/>
<path d="M16687 3463 c-4 -3 -7 -11 -7 -17 0 -6 5 -5 12 2 6 6 9 14 7 17 -3 3
-9 2 -12 -2z"/>
<path d="M16578 3433 c7 -3 16 -2 19 1 4 3 -2 6 -13 5 -11 0 -14 -3 -6 -6z"/>
<path d="M16615 3430 c3 -5 8 -10 11 -10 2 0 4 5 4 10 0 6 -5 10 -11 10 -5 0
-7 -4 -4 -10z"/>
<path d="M16570 3370 c0 -5 8 -14 18 -20 16 -11 16 -11 -1 -6 -11 4 -16 2 -12
-5 4 -5 1 -18 -6 -27 -8 -9 -1 -6 13 7 23 20 25 26 15 42 -13 20 -27 25 -27 9z"/>
<path d="M16529 3359 c-8 -5 -10 -9 -6 -9 4 0 3 -9 -3 -19 -7 -13 -7 -22 0
-26 6 -3 13 1 16 9 3 9 12 16 18 16 16 0 16 28 1 34 -7 2 -18 0 -26 -5z"/>
<path d="M16008 3251 c-10 -10 -18 -21 -18 -25 0 -9 49 27 50 37 0 12 -14 7
-32 -12z"/>
<path d="M16444 3191 c3 -4 -6 -13 -19 -19 -14 -7 -25 -16 -25 -22 0 -17 15
-11 38 13 24 26 28 37 11 37 -5 0 -8 -4 -5 -9z"/>
<path d="M15915 3159 c-11 -17 1 -21 15 -4 8 9 8 15 2 15 -6 0 -14 -5 -17 -11z"/>
<path d="M16335 3100 c-3 -5 -2 -10 4 -10 5 0 13 5 16 10 3 6 2 10 -4 10 -5 0
-13 -4 -16 -10z"/>
</g>
</svg>
